# xmcd
#
# Track frame offsets:
#	150
#	9056
#	23482
#	33139
#	49779
#	61031
#	71409
#	83114
#	97208
#	108096
#	118716
#	130764
#	141243
#	159969
#	173190
#
# Disc length: 2541 seconds
#
# Revision: 0
# Processed by: cddbd v1.5.2PL0 Copyright (c) Steve Scherf et al.
# Submitted via: EasyCDDAExtractor 15.3.0.1
#
DISCID=af09eb0f
DTITLE=Various Artist - Country Christmas
DYEAR=1900
DGENRE=
TTITLE0=Fargo Donna - Rockin' Around The Christmas Tree
TTITLE1=Riley Jeannie C. - Silver Bells
TTITLE2=Stampley Joe - Jingle Bell Rock
TTITLE3=Greene Jack - O Come All Ye Faithful
TTITLE4=Davis Skeeter - Santa Claus Is Coming To Town
TTITLE5=Raven Eddy - Silent Night
TTITLE6=Fargo Donna - Jingle Bells
TTITLE7=Stampley Joe - White Christmas
TTITLE8=Davis Skeeter - Rudolph The Red Nosed Reindeer
TTITLE9=Riley Jeannie C. - Away In A Manger
TTITLE10=Greene Jack - Hark The Herald Angels Sing
TTITLE11=Dalton Lacy J. - Winter Wonderland
TTITLE12=Raven Eddy - Have Yourself A Merry Little Christmas
TTITLE13=Stampley Joe - Please Come Home For Christmas
TTITLE14=Riley Jeannie C. - Joy To The World
EXTD=
EXTT0=
EXTT1=
EXTT2=
EXTT3=
EXTT4=
EXTT5=
EXTT6=
EXTT7=
EXTT8=
EXTT9=
EXTT10=
EXTT11=
EXTT12=
EXTT13=
EXTT14=
PLAYORDER=
